PathFileType	4	(X/Y/Z)	 2.8Hzhigh3min.trc
DataRate	CameraRate	NumFrames	NumMarkers	Units	OrigDataRate	OrigDataStartFrame	OrigNumFrames
200	200	11	35	m	200	626	1000
Frame#	Time	C7			LSH			RSH			MAN			RASI			LASI			HIPR			HIPL			RPSI			LPSI			COX			RTHI1			RTHI2			RTHI3			RTHI4			RSHA1			RSHA2			RSHA3			RSHA4			RHEEL			RMET5			RMET1			RTOE			LTHI1			LTHI2			LTHI3			LTHI4			LSHA1			LSHA2			LSHA3			LSHA4			LHEEL			LMET5			LMET1			LTOE			
		X1	Y1	Z1	X2	Y2	Z2	X3	Y3	Z3	X4	Y4	Z4	X5	Y5	Z5	X6	Y6	Z6	X7	Y7	Z7	X8	Y8	Z8	X9	Y9	Z9	X10	Y10	Z10	X11	Y11	Z11	X12	Y12	Z12	X13	Y13	Z13	X14	Y14	Z14	X15	Y15	Z15	X16	Y16	Z16	X17	Y17	Z17	X18	Y18	Z18	X19	Y19	Z19	X20	Y20	Z20	X21	Y21	Z21	X22	Y22	Z22	X23	Y23	Z23	X24	Y24	Z24	X25	Y25	Z25	X26	Y26	Z26	X27	Y27	Z27	X28	Y28	Z28	X29	Y29	Z29	X30	Y30	Z30	X31	Y31	Z31	X32	Y32	Z32	X33	Y33	Z33	X34	Y34	Z34	X35	Y35	Z35	
626	3.1300	-0.342069	1.679958	-0.515560	-0.294387	1.667687	-0.735471	-0.278586	1.673141	-0.311253	-0.187265	1.637578	-0.519481	-0.148512	1.186727	-0.396882	-0.133451	1.180105	-0.611218	-0.206426	1.239933	-0.353167	-0.197744	1.236743	-0.673011	-0.330273	1.213548	-0.456179	-0.329351	1.205824	-0.571824	-0.336965	1.219006	-0.510755	-0.256241	0.929568	-0.314994	-0.246208	0.871703	-0.303475	-0.181839	0.881211	-0.296737	-0.183758	0.941295	-0.309995	-0.349158	0.486045	-0.296728	-0.360181	0.444802	-0.303100	-0.301091	0.434828	-0.290659	-0.293928	0.474270	-0.288785	-0.420412	0.148847	-0.365703	-0.274161	0.046971	-0.286363	-0.222371	0.061985	-0.355971	-0.196084	0.053532	-0.349112	-0.212583	0.916985	-0.716842	-0.197839	0.857270	-0.723011	-0.134740	0.866328	-0.713215	-0.140615	0.926012	-0.706094	-0.299239	0.456339	-0.730155	-0.313478	0.418387	-0.729511	-0.252992	0.402740	-0.721670	-0.246424	0.446490	-0.723571	-0.414270	0.139870	-0.669608	-0.258885	0.049244	-0.736958	-0.207241	0.055815	-0.667986	-0.181429	0.049763	-0.676469	
627	3.1350	-0.341524	1.677602	-0.515440	-0.293940	1.665109	-0.735381	-0.278174	1.670341	-0.311056	-0.186875	1.634712	-0.519362	-0.149267	1.184229	-0.397030	-0.134135	1.177655	-0.611267	-0.207203	1.237197	-0.353308	-0.198284	1.234162	-0.673046	-0.331011	1.210375	-0.456455	-0.330004	1.202669	-0.572044	-0.337695	1.215768	-0.511014	-0.255486	0.926843	-0.314744	-0.245054	0.869005	-0.303416	-0.180676	0.878774	-0.297029	-0.182915	0.938825	-0.310391	-0.347598	0.483633	-0.296063	-0.358852	0.442430	-0.302575	-0.299741	0.432186	-0.290385	-0.292400	0.471593	-0.288453	-0.421021	0.147220	-0.365343	-0.274814	0.043729	-0.287738	-0.223142	0.059142	-0.357737	-0.196865	0.050358	-0.351123	-0.212008	0.914394	-0.716864	-0.197130	0.854700	-0.722929	-0.134078	0.863881	-0.712935	-0.140093	0.923573	-0.705882	-0.298025	0.453734	-0.730409	-0.312312	0.415805	-0.729772	-0.251877	0.400097	-0.721663	-0.245252	0.443827	-0.723583	-0.413736	0.137482	-0.670044	-0.257675	0.046149	-0.734731	-0.206619	0.053791	-0.665445	-0.180739	0.047658	-0.673641	
628	3.1400	-0.340959	1.675001	-0.515304	-0.293476	1.662285	-0.735288	-0.277631	1.667305	-0.310840	-0.186474	1.631588	-0.519229	-0.150060	1.181479	-0.397171	-0.134892	1.174976	-0.611297	-0.208009	1.234239	-0.353454	-0.198848	1.231369	-0.673081	-0.331794	1.206977	-0.456736	-0.330704	1.199290	-0.572265	-0.338473	1.212303	-0.511276	-0.254726	0.923873	-0.314454	-0.243853	0.866057	-0.303314	-0.179477	0.876123	-0.297287	-0.182051	0.936124	-0.310784	-0.345915	0.481007	-0.295349	-0.357401	0.439845	-0.301986	-0.298287	0.429296	-0.290136	-0.290748	0.468666	-0.288171	-0.421813	0.145378	-0.364928	-0.275456	0.040545	-0.289049	-0.224002	0.056169	-0.359813	-0.197704	0.047040	-0.353480	-0.211439	0.911523	-0.716888	-0.196407	0.851860	-0.722860	-0.133400	0.861197	-0.712719	-0.139567	0.920893	-0.705734	-0.296623	0.450868	-0.730747	-0.310980	0.412959	-0.730127	-0.250624	0.397181	-0.721591	-0.243916	0.440886	-0.723542	-0.413306	0.134980	-0.670451	-0.256560	0.042978	-0.732479	-0.206169	0.051512	-0.662585	-0.180227	0.045305	-0.670484	
629	3.1450	-0.340379	1.672141	-0.515143	-0.292993	1.659232	-0.735196	-0.276913	1.664056	-0.310605	-0.186071	1.628213	-0.519089	-0.150883	1.178470	-0.397300	-0.135710	1.172060	-0.611317	-0.208844	1.231033	-0.353580	-0.199435	1.228361	-0.673118	-0.332620	1.203359	-0.457019	-0.331445	1.195685	-0.572493	-0.339291	1.208613	-0.511541	-0.253946	0.920614	-0.314113	-0.242620	0.862851	-0.303183	-0.178260	0.873245	-0.297503	-0.181194	0.933189	-0.311163	-0.344105	0.478169	-0.294568	-0.355833	0.437068	-0.301331	-0.296731	0.426173	-0.289915	-0.288979	0.465482	-0.287918	-0.422729	0.143249	-0.364597	-0.276039	0.037577	-0.290088	-0.224818	0.053220	-0.361980	-0.198459	0.043733	-0.356018	-0.210874	0.908369	-0.716927	-0.195660	0.848744	-0.722814	-0.132693	0.858270	-0.712564	-0.139039	0.917974	-0.705649	-0.295022	0.447742	-0.731167	-0.309470	0.409856	-0.730580	-0.249232	0.393990	-0.721453	-0.242416	0.437664	-0.723443	-0.413067	0.132317	-0.670795	-0.255530	0.039893	-0.730489	-0.205812	0.049122	-0.659651	-0.179784	0.042823	-0.667157	
630	3.1500	-0.339797	1.669021	-0.514953	-0.292469	1.655958	-0.735107	-0.276132	1.660557	-0.310362	-0.185662	1.624598	-0.518941	-0.151725	1.175200	-0.397415	-0.136576	1.168904	-0.611337	-0.209706	1.227577	-0.353698	-0.200049	1.225129	-0.673162	-0.333476	1.199517	-0.457309	-0.332226	1.191854	-0.572722	-0.340136	1.204710	-0.511812	-0.253160	0.917073	-0.313821	-0.241370	0.859385	-0.303018	-0.177043	0.870142	-0.297678	-0.180358	0.930022	-0.311528	-0.342175	0.475132	-0.293702	-0.354159	0.434091	-0.300562	-0.295089	0.422820	-0.289724	-0.287103	0.462059	-0.287701	-0.423766	0.140834	-0.364439	-0.276537	0.035029	-0.290649	-0.225484	0.050467	-0.363982	-0.199039	0.040618	-0.358446	-0.210313	0.904925	-0.716993	-0.194875	0.845349	-0.722801	-0.131958	0.855107	-0.712466	-0.138516	0.914806	-0.705621	-0.293215	0.444362	-0.731661	-0.307786	0.406503	-0.731108	-0.247709	0.390526	-0.721230	-0.240749	0.434157	-0.723279	-0.413091	0.129489	-0.671012	-0.254622	0.037057	-0.729061	-0.205455	0.046754	-0.656949	-0.179330	0.040301	-0.663978	
631	3.1550	-0.339216	1.665655	-0.514727	-0.291896	1.652465	-0.735021	-0.275318	1.656839	-0.310115	-0.185250	1.620756	-0.518791	-0.152581	1.171673	-0.397516	-0.137480	1.165500	-0.611366	-0.210591	1.223861	-0.353800	-0.200695	1.221663	-0.673224	-0.334365	1.195455	-0.457592	-0.333047	1.187807	-0.572943	-0.341013	1.200592	-0.512075	-0.252363	0.913241	-0.313609	-0.240122	0.855654	-0.302819	-0.175844	0.866818	-0.297808	-0.179567	0.926632	-0.311865	-0.340149	0.471886	-0.292807	-0.352415	0.430914	-0.299691	-0.293373	0.419241	-0.289581	-0.285131	0.458418	-0.287535	-0.424984	0.138132	-0.364422	-0.276945	0.033044	-0.290551	-0.225950	0.048113	-0.365560	-0.199374	0.037920	-0.360513	-0.209762	0.901188	-0.717096	-0.194052	0.841673	-0.722833	-0.131194	0.851709	-0.712417	-0.138005	0.911403	-0.705645	-0.291211	0.440732	-0.732207	-0.305940	0.402908	-0.731684	-0.246074	0.386789	-0.720904	-0.238927	0.430367	-0.723041	-0.413445	0.126510	-0.671065	-0.253886	0.034658	-0.728466	-0.205042	0.044577	-0.654793	-0.178832	0.037880	-0.661361	
632	3.1600	-0.338641	1.662048	-0.514463	-0.291280	1.648752	-0.734945	-0.274489	1.652905	-0.309861	-0.184831	1.616691	-0.518638	-0.153449	1.167886	-0.397601	-0.138407	1.161850	-0.611411	-0.211495	1.219887	-0.353884	-0.201371	1.217945	-0.673315	-0.335281	1.191179	-0.457869	-0.333908	1.183550	-0.573159	-0.341909	1.196256	-0.512322	-0.251561	0.909121	-0.313513	-0.238893	0.851676	-0.302626	-0.174671	0.863282	-0.297897	-0.178830	0.923012	-0.312162	-0.338047	0.468460	-0.291878	-0.350622	0.427557	-0.298743	-0.291614	0.415459	-0.289513	-0.283082	0.454571	-0.287429	-0.426434	0.135205	-0.364536	-0.277273	0.031534	-0.289849	-0.226212	0.046277	-0.366518	-0.199470	0.035759	-0.362086	-0.209222	0.897171	-0.717246	-0.193203	0.837733	-0.722916	-0.130414	0.848091	-0.712419	-0.137528	0.907766	-0.705703	-0.289043	0.436849	-0.732755	-0.303972	0.399088	-0.732248	-0.244361	0.382773	-0.720466	-0.236974	0.426290	-0.722722	-0.414188	0.123389	-0.670955	-0.253363	0.032734	-0.728832	-0.204590	0.042803	-0.653463	-0.178269	0.035743	-0.659472	
633	3.1650	-0.338081	1.658208	-0.514166	-0.290648	1.644850	-0.734897	-0.273683	1.648766	-0.309595	-0.184405	1.612414	-0.518486	-0.154326	1.163859	-0.397675	-0.139327	1.157965	-0.611490	-0.212420	1.215649	-0.353945	-0.202085	1.213973	-0.673434	-0.336215	1.186700	-0.458144	-0.334798	1.179096	-0.573377	-0.342806	1.191727	-0.512550	-0.250739	0.904700	-0.313531	-0.237699	0.847459	-0.302457	-0.173538	0.859529	-0.297949	-0.178159	0.919177	-0.312404	-0.335877	0.464868	-0.290889	-0.348823	0.424046	-0.297779	-0.289829	0.411504	-0.289540	-0.280976	0.450544	-0.287358	-0.428054	0.132152	-0.364701	-0.277637	0.030354	-0.288721	-0.226345	0.044905	-0.366917	-0.199475	0.034117	-0.363103	-0.208704	0.892892	-0.717447	-0.192336	0.833541	-0.723054	-0.129628	0.844261	-0.712472	-0.137088	0.903905	-0.705804	-0.286766	0.432735	-0.733246	-0.301938	0.395059	-0.732731	-0.242622	0.378490	-0.719913	-0.234944	0.421933	-0.722318	-0.415319	0.120160	-0.670749	-0.253158	0.031115	-0.730004	-0.204138	0.041462	-0.653002	-0.177684	0.033914	-0.658381	
634	3.1700	-0.337535	1.654161	-0.513846	-0.289988	1.640740	-0.734873	-0.272955	1.644424	-0.309313	-0.183961	1.607954	-0.518334	-0.155205	1.159604	-0.397745	-0.140235	1.153853	-0.611606	-0.213357	1.211171	-0.353992	-0.202837	1.209741	-0.673587	-0.337156	1.182025	-0.458414	-0.335718	1.174465	-0.573588	-0.343708	1.187013	-0.512756	-0.249940	0.900079	-0.313737	-0.236544	0.843018	-0.302318	-0.172450	0.855586	-0.297967	-0.177547	0.915145	-0.312585	-0.333672	0.461143	-0.289924	-0.347013	0.420433	-0.296806	-0.288041	0.407412	-0.289671	-0.278843	0.446390	-0.287369	-0.429836	0.129093	-0.364827	-0.278071	0.029463	-0.287388	-0.226504	0.043936	-0.366962	-0.199533	0.032942	-0.363620	-0.208217	0.888378	-0.717695	-0.191466	0.829122	-0.723251	-0.128850	0.840244	-0.712589	-0.136689	0.899834	-0.705954	-0.284455	0.428418	-0.733615	-0.299921	0.390852	-0.733063	-0.240931	0.373953	-0.719230	-0.232898	0.417312	-0.721814	-0.416746	0.116931	-0.670516	-0.253292	0.029796	-0.731634	-0.203815	0.040457	-0.653127	-0.177255	0.032385	-0.658001	
635	3.1750	-0.337003	1.649929	-0.513516	-0.289281	1.636471	-0.734898	-0.272214	1.639919	-0.309004	-0.183498	1.603344	-0.518190	-0.156083	1.155140	-0.397813	-0.141121	1.149535	-0.611760	-0.214309	1.206470	-0.354024	-0.203629	1.205248	-0.673772	-0.338111	1.177184	-0.458666	-0.336662	1.169679	-0.573790	-0.344615	1.182121	-0.512932	-0.249154	0.895269	-0.313998	-0.235431	0.838396	-0.302208	-0.171414	0.851470	-0.297958	-0.176993	0.910942	-0.312694	-0.331474	0.457343	-0.289027	-0.345220	0.416797	-0.295911	-0.286273	0.403252	-0.289897	-0.276725	0.442166	-0.287452	-0.431780	0.126102	-0.364794	-0.278537	0.028758	-0.286074	-0.226768	0.043299	-0.366914	-0.199689	0.032164	-0.363926	-0.207768	0.883657	-0.717992	-0.190616	0.824508	-0.723498	-0.128095	0.836056	-0.712767	-0.136330	0.895593	-0.706168	-0.282197	0.423961	-0.733808	-0.298008	0.386534	-0.733211	-0.239364	0.369193	-0.718460	-0.230916	0.412468	-0.721216	-0.418383	0.113764	-0.670351	-0.253695	0.028767	-0.733346	-0.203749	0.039759	-0.653468	-0.177089	0.031210	-0.658006	
636	3.1800	-0.336488	1.645539	-0.513192	-0.288571	1.632045	-0.734977	-0.271448	1.635219	-0.308660	-0.182996	1.598604	-0.518053	-0.156958	1.150492	-0.397883	-0.141982	1.145036	-0.611953	-0.215266	1.201570	-0.354045	-0.204454	1.200504	-0.673984	-0.339063	1.172193	-0.458913	-0.337621	1.164751	-0.574000	-0.345511	1.177084	-0.513088	-0.248398	0.890312	-0.314260	-0.234366	0.833632	-0.302139	-0.170423	0.847218	-0.297918	-0.176493	0.906613	-0.312729	-0.329330	0.453571	-0.288206	-0.343484	0.413179	-0.295153	-0.284571	0.399119	-0.290168	-0.274675	0.437967	-0.287564	-0.433755	0.123182	-0.364687	-0.278990	0.028158	-0.284966	-0.227116	0.042855	-0.366970	-0.199926	0.031631	-0.364241	-0.207350	0.878780	-0.718333	-0.189798	0.819741	-0.723788	-0.127367	0.831723	-0.713010	-0.136004	0.891209	-0.706460	-0.280080	0.419451	-0.733806	-0.296292	0.382195	-0.733176	-0.238008	0.364294	-0.717678	-0.229076	0.407464	-0.720568	-0.420144	0.110652	-0.670308	-0.254226	0.027945	-0.734850	-0.203959	0.039299	-0.653671	-0.177158	0.030365	-0.657864	
